<?xml version="1.0" encoding="utf-8"?>
<!-- Generator: Adobe Illustrator 16.0.0, SVG Export Plug-In . SVG Version: 6.00 Build 0)  -->
<!DOCTYPE svg PUBLIC "-//W3C//DTD SVG 1.1//EN" "http://www.w3.org/Graphics/SVG/1.1/DTD/svg11.dtd">
<svg version="1.1" id="Layer_1" xmlns="http://www.w3.org/2000/svg" xmlns:xlink="http://www.w3.org/1999/xlink" x="0px" y="0px"
	 width="850.393px" height="850.393px" viewBox="0 0 850.393 850.393" enable-background="new 0 0 850.393 850.393"
	 xml:space="preserve">
<g>
	<g>
		<path fill="#FFFFFF" d="M196.58,191.708c-0.84-1.334-0.395-3.287,0.936-4.127l12.396-7.802c1.466-0.923,3.287-0.396,4.125,0.938
			l22.232,35.315l43.445-27.352l-22.232-35.315c-0.838-1.332-0.529-3.204,0.938-4.125l12.262-7.719
			c1.331-0.84,3.285-0.396,4.126,0.938l55.541,88.223c0.838,1.334,0.395,3.289-0.939,4.127l-12.26,7.718
			c-1.467,0.923-3.289,0.395-4.126-0.938l-23.156-36.782l-43.445,27.351l23.154,36.781c0.84,1.333,0.528,3.204-0.937,4.127
			l-12.395,7.802c-1.332,0.84-3.287,0.396-4.125-0.937L196.58,191.708z"/>
		<path fill="#FFFFFF" d="M361.569,117.927c-0.237-1.558,0.95-3.172,2.509-3.407l14.48-2.204c1.556-0.237,3.17,0.952,3.406,2.509
			l15.674,103.067c0.238,1.558-0.948,3.172-2.506,3.409l-14.479,2.202c-1.559,0.235-3.172-0.951-3.408-2.507L361.569,117.927z"/>
		<path fill="#FFFFFF" d="M440.371,111.718c-0.537-2.189,1.088-3.961,3.406-3.51l15.77,3.058c1.393,0.27,2.143,1.377,2.299,2.211
			l16.791,72.236l1.086,0.21l42.576-60.723c0.455-0.713,1.564-1.46,2.957-1.191l15.77,3.059c2.318,0.449,3.166,2.699,1.848,4.529
			l-68.105,94.755c-0.643,0.837-1.566,1.461-2.959,1.191l-1.547-0.299c-1.391-0.271-2.014-1.194-2.295-2.211L440.371,111.718z"/>
		<path fill="#FFFFFF" d="M594.182,153.655c0.867-1.313,2.697-1.802,4.143-0.849l53.479,35.334c1.445,0.956,1.715,2.832,0.848,4.146
			l-7.119,10.774c-0.867,1.314-2.703,1.802-4.146,0.848l-38.891-25.697l-14.24,21.549l32.455,21.443
			c1.314,0.868,1.715,2.833,0.846,4.146l-7.205,10.906c-0.955,1.445-2.832,1.715-4.145,0.847l-32.455-21.443l-15.191,22.993
			l38.891,25.698c1.443,0.955,1.717,2.832,0.846,4.146l-7.117,10.773c-0.867,1.315-2.701,1.802-4.146,0.847l-53.475-35.332
			c-1.447-0.954-1.715-2.832-0.848-4.146L594.182,153.655z"/>
	</g>
	<g>
		<path fill="#FFFFFF" d="M198.615,580.9c0.518-0.307,1.262-0.115,1.566,0.402l3.77,6.377c0.337,0.568,0.115,1.26-0.401,1.566
			l-20.993,12.409c-3.629,2.146-4.939,6.558-2.762,10.236c2.205,3.731,6.732,4.765,10.361,2.618l20.99-12.409
			c0.52-0.307,1.232-0.168,1.568,0.401l3.77,6.377c0.305,0.518,0.115,1.26-0.404,1.566l-21.406,12.654
			c-7.879,4.658-18.331,1.884-23.174-6.305c-4.81-8.141-2.17-18.582,5.707-23.239L198.615,580.9z"/>
		<path fill="#FFFFFF" d="M230.806,629.59c0.438-0.414,1.163-0.436,1.618,0.048l12.35,13.103c4.959,5.259,4.758,13.561-0.458,18.476
			c-4.032,3.802-9.796,4.187-14.923,1.82l-5.469,16.497c-0.282,0.843-1.272,1.195-1.975,0.452l-5.494-5.829
			c-0.332-0.352-0.36-0.821-0.268-1.074l6.117-16.774l-2.85-3.023l-11.174,10.535c-0.438,0.413-1.205,0.391-1.619-0.047
			l-4.916-5.217c-0.451-0.482-0.389-1.205,0.049-1.617L230.806,629.59z M231.135,654.523c1.695,1.797,4.805,1.762,6.646,0.024
			c1.842-1.735,1.885-4.671,0.191-6.47l-6.115-6.485l-6.835,6.443L231.135,654.523z"/>
		<path fill="#FFFFFF" d="M270.312,667.479c0.346-0.493,1.049-0.667,1.593-0.289l11.532,8c5.842,4.049,7.861,11.39,4.258,16.586
			c-2.645,3.809-7.98,4.215-11.164,3.839c1.867,2.908,4.193,8.112,1.035,12.668c-3.844,5.543-11.523,6.152-17.414,2.069
			l-12.275-8.513c-0.545-0.379-0.631-1.098-0.289-1.594L270.312,667.479z M264.07,702.586c1.932,1.339,4.662,0.888,6.07-1.142
			c1.372-1.979,0.273-4.94-1.656-6.277l-4.009-2.782l-4.909,7.077L264.07,702.586z M272.798,688.627
			c1.882,1.305,4.563,0.82,5.937-1.16c1.373-1.979,0.751-4.466-1.131-5.769l-3.857-2.677l-4.81,6.93L272.798,688.627z"/>
		<path fill="#FFFFFF" d="M293.545,728.959l33.039-30.113c0.305-0.264,0.809-0.377,1.198-0.216l0.558,0.233
			c0.389,0.162,0.66,0.604,0.688,1.005l1.742,44.671c0.029,0.863-0.717,1.398-1.55,1.051l-6.167-2.583
			c-1.001-0.418-1.305-0.938-1.365-2.203l-0.161-5.225l-15.112-6.325l-3.861,3.606c-0.556,0.55-1.447,0.961-2.558,0.496
			l-6.112-2.556C293.049,730.451,292.906,729.543,293.545,728.959z M321.354,726.625l-0.385-10.932l-0.055-0.023l-8.006,7.423
			L321.354,726.625z"/>
		<path fill="#FFFFFF" d="M364.783,712.661c0.099-0.595,0.713-0.979,1.307-0.88l1.486,0.25l19.854,26.803l0.06,0.01l3.552-21.085
			c0.1-0.595,0.666-1.05,1.319-0.938l7.127,1.2c0.594,0.1,1.037,0.726,0.938,1.32l-6.734,39.971
			c-0.102,0.594-0.715,0.978-1.311,0.88l-0.949-0.161c-0.178-0.028-0.623-0.289-0.721-0.425l-19.489-27.535l-0.058-0.008
			l-3.732,22.152c-0.102,0.594-0.666,1.048-1.32,0.939l-7.066-1.192c-0.596-0.099-1.039-0.724-0.939-1.319L364.783,712.661z"/>
		<path fill="#FFFFFF" d="M453.238,718.572c-0.098-0.595,0.295-1.204,0.949-1.31l24.621-3.919c0.656-0.105,1.217,0.354,1.312,0.949
			l1.031,6.483c0.096,0.595-0.297,1.205-0.949,1.309l-16.477,2.624l1.363,8.566l13.561-2.162c0.596-0.094,1.217,0.355,1.312,0.952
			l1.031,6.482c0.096,0.595-0.355,1.216-0.949,1.31l-13.561,2.16l2.299,14.453c0.096,0.594-0.354,1.213-0.947,1.309l-7.02,1.118
			c-0.654,0.103-1.217-0.355-1.309-0.952L453.238,718.572z"/>
		<path fill="#FFFFFF" d="M507.768,748.099l3.52-44.576c0.041-0.402,0.332-0.83,0.729-0.979l0.564-0.211
			c0.393-0.146,0.893-0.012,1.189,0.264l31.822,31.413c0.613,0.607,0.436,1.509-0.414,1.825l-6.264,2.332
			c-1.018,0.38-1.596,0.211-2.504-0.675l-3.693-3.702l-15.355,5.72l-0.35,5.271c-0.029,0.784-0.398,1.692-1.529,2.114l-6.209,2.314
			C508.426,749.525,507.703,748.959,507.768,748.099z M526.471,727.375l-7.76-7.718l-0.057,0.022l-0.766,10.893L526.471,727.375z"/>
		<path fill="#FFFFFF" d="M548.969,687.81c-0.324-0.507-0.215-1.223,0.342-1.581l15.133-9.763
			c6.076-3.915,14.201-2.207,18.086,3.817c3.002,4.656,2.33,10.394-0.93,15.005l15.227,8.383c0.779,0.431,0.947,1.468,0.088,2.023
			l-6.732,4.341c-0.406,0.262-0.873,0.204-1.104,0.068l-15.385-9.073l-3.49,2.253l8.322,12.907c0.326,0.505,0.166,1.255-0.34,1.582
			l-6.023,3.886c-0.557,0.358-1.256,0.164-1.582-0.342L548.969,687.81z M573.547,692.025c2.076-1.339,2.607-4.406,1.236-6.528
			c-1.373-2.128-4.252-2.706-6.326-1.366l-7.494,4.83l5.094,7.895L573.547,692.025z"/>
		<path fill="#FFFFFF" d="M595.982,652.746c-0.352-0.418-0.285-1.1,0.045-1.449l0.664-0.7c0.205-0.218,0.754-0.446,1.141-0.329
			l28.5,7.737l0.082-0.087l-9.289-28.032c-0.141-0.38,0.059-0.938,0.268-1.157l0.66-0.702c0.33-0.347,1.01-0.451,1.445-0.124
			l34.068,22.879c0.654,0.453,0.672,1.22,0.176,1.743l-4.885,5.16c-0.371,0.396-1.094,0.457-1.484,0.169l-15.379-10.826
			l-0.084,0.088l7.217,20.762c0.139,0.38-0.016,0.981-0.223,1.2l-0.746,0.785c-0.248,0.264-0.799,0.407-1.184,0.29l-21.168-6.021
			l-0.084,0.088l11.695,14.717c0.307,0.375,0.326,1.057-0.09,1.492l-4.885,5.163c-0.498,0.523-1.264,0.544-1.746-0.081
			L595.982,652.746z"/>
		<path fill="#FFFFFF" d="M666.137,624.886l-2.873-4.973c-0.432-0.811,0.254-1.736,0.725-1.948c0.227-0.147,5.176-2.267,7.189-5.692
			c1.221-2.079,0.807-4.348-1.01-5.414c-2.182-1.284-4.91-0.442-8.387,2.266c-4.391,3.426-11.166,6.99-17.398,3.326
			c-5.139-3.023-7.98-10.071-3.281-18.066c3.176-5.4,8.367-7.937,10.428-8.822c0.729-0.412,1.602,0.243,1.844,0.664l2.441,4.998
			c0.357,0.699,0.275,1.91-0.361,2.162c-0.537,0.316-5.619,2.426-7.48,5.594c-1.1,1.87-0.68,4.002,0.725,4.827
			c1.922,1.129,4.289,0.426,8.363-2.698c3.988-3.104,10.939-7.681,18.002-3.529c5.348,3.145,8.033,10.939,3.545,18.572
			c-3.967,6.749-8.969,8.839-10.865,9.329C666.92,625.697,666.617,625.73,666.137,624.886z"/>
	</g>
	<g>
		<path fill="#FBBA00" d="M580.535,461.407c22.742-1.629,45.48-3.262,68.223-4.892c6.17-17.27,12.283-35.227,18.33-53.875
			c-9.258-16.157-18.445-31.637-27.578-46.416c-56.453,14.391-116.303,30-173.297,44.584c12.086-5.182,29.277-15.498,43.586-35.448
			c8.42-11.737,15.947-20.536,22.469-26.292l0.002,0.001c3.801-3.453,6.812-4.052,8.588-3.256c0.229,0.126,0.465,0.242,0.703,0.355
			c0.088,0.05,0.15,0.084,0.15,0.084l0.018-0.013c0.984,0.45,2.08,0.827,3.271,1.107c5.881,1.382,11.758-0.07,13.131-3.24
			c1.029-2.377-0.76-5.041-4.184-6.814c5.363-1.237,9.188-4.444,8.594-7.271c-0.369-1.747-2.348-2.939-5.08-3.361
			c0.164-0.136,0.336-0.275,0.5-0.423c4.25-3.772,6.104-8.62,4.148-10.827c-1.965-2.213-7-0.944-11.252,2.827
			c-0.164,0.15-0.316,0.297-0.475,0.448c-0.088-2.768-1.041-4.871-2.734-5.443c-2.734-0.929-6.373,2.486-8.244,7.667
			c-1.348-3.612-3.779-5.708-6.258-4.965c-3.316,0.979-5.461,6.645-4.787,12.651c0.141,1.226,0.387,2.366,0.719,3.409l-0.006,0.006
			c0,0,0.014,0.018,0.025,0.041c0.1,0.324,0.213,0.642,0.328,0.946c0.586,1.898-0.213,4.6-4.078,8.026l0.002,0.004
			c-7.213,6.364-15.312,15.785-24.178,28.145c-17.105,23.844-39.121,32.423-47.977,35.042l9.275-54.055l-14.182-7.678
			c3.951-9.957,10.766-22.414,22.209-32.658c0.195,0.155,0.396,0.317,0.594,0.465c4.195,3.168,7.844,5.01,9.373,4.643
			c1.369-0.327,2.016-2.195,2.277-3.282c1.223-5.044-0.34-13.479-4.191-16.775c-4.008-3.414-13.557-3.666-18.039-1.382
			c-0.994,0.507-2.154,1.369-2.057,2.602c0.137,1.799,2.738,5.291,6.621,9.038c-11.818,10.77-18.941,23.5-23.15,33.903l-16.99-9.2
			l-16.994,9.2c-4.209-10.403-11.333-23.134-23.152-33.903c3.885-3.749,6.485-7.239,6.625-9.038
			c0.096-1.233-1.065-2.095-2.057-2.602c-4.484-2.284-14.033-2.032-18.043,1.382c-3.85,3.296-5.41,11.73-4.191,16.775
			c0.264,1.086,0.91,2.955,2.277,3.282c1.531,0.367,5.18-1.474,9.375-4.643c0.195-0.148,0.396-0.31,0.596-0.463
			c11.441,10.242,18.256,22.699,22.205,32.656l-14.182,7.678l9.283,54.094c-8.803-2.59-30.898-11.149-48.051-35.063
			c-4.623-6.444-9.754-12.618-15.229-18.425c10.039-7.588,7.261-19.884,3.096-25.408c-8.629,4.337-11.223,11.099-11.575,16.995
			c-3.562-3.306-7.228-6.445-10.984-9.38c9.892-16.81-8.857-28.01-8.857-28.01s-11.19,11.309-4.514,24.01
			c-9.694-3.913-19.089,4.761-19.089,4.761s9.867,17.439,25.351,7.148c7.786,6.025,15.205,12.967,21.964,20.535
			c-4.955-0.688-10.594-0.091-16.309,3.303c5.051,8.765,14.637,15.813,26.399,9.162c0.369,0.501,0.755,0.993,1.118,1.498
			c14.24,19.853,31.334,30.167,43.411,35.374c-56.931-14.568-116.697-30.156-173.073-44.527
			c-9.131,14.779-18.32,30.259-27.578,46.416c6.049,18.648,12.16,36.605,18.332,53.875c23.012,1.65,46.021,3.301,69.031,4.951
			l11.959,23.74l89.848-13.708c-10.164,3.1-23.049,8.914-35.766,19.834c-3.13,2.688-6.318,5.507-9.552,8.366
			c-14.24,12.594-29.911,26.448-45.169,32.49l-0.322-0.886c-1.127-3.087-4.535-4.681-7.623-3.562c-1.35,0.49-2.39,1.433-3.061,2.582
			c-1.549-1.974-4.217-2.845-6.693-1.943c-2.369,0.858-3.842,3.07-3.91,5.444c-1.4-0.699-3.076-0.849-4.662-0.275
			c-3.088,1.123-4.68,4.538-3.557,7.627c0.008,0.011,0.014,0.025,0.021,0.045c-0.773,0.054-1.547,0.206-2.312,0.48
			c-4.301,1.567-6.521,6.315-4.957,10.614c1.561,4.3,6.316,6.516,10.615,4.957c0.761-0.285,1.457-0.664,2.082-1.122
			c0,0.017,0.008,0.035,0.017,0.056c1.114,3.084,4.528,4.677,7.614,3.56c1.594-0.58,2.779-1.774,3.406-3.208
			c1.572,1.774,4.127,2.528,6.486,1.664c2.48-0.898,3.963-3.284,3.887-5.783c1.254,0.439,2.654,0.496,4.002,0.004
			c3.092-1.115,4.683-4.529,3.555-7.621l-0.966-2.658c17.116-6.694,33.587-21.25,48.581-34.511c3.195-2.825,6.342-5.61,9.435-8.266
			c17.224-14.788,34.982-19.068,43.504-20.307c-8.066,17.767-40.933,85.571-84.729,114.334c-4.421-4.954-8.523-8.103-10.603-7.977
			c-1.868,0.112-3.274,2.383-3.942,3.722c-3.123,6.229-3.682,17.438,0.279,22.544c4.135,5.294,16.398,7.748,22.892,5.803
			c1.429-0.428,3.19-1.279,3.448-2.888c0.36-2.304-1.84-7.221-5.565-12.776c21.178-14.085,42.111-37.739,62.359-70.513
			c3.571-5.778,6.824-11.372,9.753-16.629c-6.272,44.807-12.547,89.613-18.82,134.419c19.778,9.366,40.871,18.734,63.271,28.104
			c22.397-9.372,43.487-18.738,63.265-28.107c-6.287-44.915-12.576-89.831-18.865-134.745c2.975,5.351,6.291,11.06,9.936,16.958
			c12.627,20.437,25.521,37.301,38.574,50.537c16.281,19.645,10.398,35.329,13.283,35.567c2.9,0.071,4.385-11.609,3.301-20.783
			c1.922,1.48,3.848,2.88,5.775,4.202l-0.027-0.003c14.695,10.621,14.463,24.161,17.297,24.161c2.424,0,1.475-13.314-2.467-20.52
			c9.973,1.528,21.18-0.097,20.689-2.073c-0.564-2.28-16.045-1.929-32.422-12.39c-3.365-2.473-6.66-5.168-9.879-8.039
			c13.379,3.421,31.893,1.399,30.764-1.562c-1.268-3.321-28.906,1.965-51.252-20.004c-25.652-31.146-43.797-68.798-49.5-81.352
			c8.523,1.229,26.139,5.492,43.402,20.315c3.094,2.655,6.242,5.44,9.436,8.267c14.477,12.803,30.33,26.816,46.811,33.792
			c1.842,5.235,7.58,11.895,16.488,14.286c8.145,2.184,15.604,0.551,21.846-2.027c1.824-0.759,5.002-2.542,5.93-5.371
			c0.91-2.783-0.287-5.28-1.178-6.691c-3.414-5.489-8.826-11.321-17.109-13.551c-9.67-2.594-17.436,0.472-21.713,3.634
			c-14.902-6.265-30.15-19.742-44.039-32.026c-3.234-2.859-6.424-5.679-9.551-8.366c-13.23-11.357-26.643-17.192-36.98-20.194
			l91.85,14.068L580.535,461.407z M630.807,443.238c-4.311,0.421-8.635,0.848-12.947,1.275c-0.383-4.139-0.762-8.279-1.146-12.418
			c4.309-0.528,8.617-1.055,12.92-1.581C630.025,434.753,630.414,438.996,630.807,443.238z M628.244,415.408
			c-4.301,0.65-8.598,1.294-12.891,1.941c-0.385-4.14-0.764-8.274-1.146-12.415c4.287-0.745,8.57-1.498,12.861-2.25
			C627.461,406.926,627.85,411.167,628.244,415.408z M624.5,374.857c0.393,4.243,0.785,8.488,1.174,12.727
			c-4.275,0.867-8.547,1.734-12.826,2.604c-0.379-4.14-0.766-8.276-1.146-12.412C615.965,376.806,620.232,375.832,624.5,374.857z
			 M606.896,445.592c-4.316,0.427-8.639,0.85-12.957,1.278c-0.359-3.961-0.73-7.908-1.092-11.859
			c4.305-0.527,8.619-1.053,12.928-1.576C606.146,437.487,606.52,441.539,606.896,445.592z M604.439,418.993
			c-4.291,0.647-8.592,1.293-12.885,1.941c-0.369-3.954-0.732-7.906-1.098-11.859c4.289-0.748,8.578-1.493,12.859-2.244
			C603.697,410.885,604.07,414.936,604.439,418.993z M600.865,380.232c0.373,4.054,0.748,8.108,1.127,12.164
			c-4.279,0.867-8.559,1.736-12.836,2.605c-0.361-3.956-0.729-7.904-1.094-11.857C592.332,382.171,596.596,381.207,600.865,380.232z
			 M582.982,447.947c-4.316,0.429-8.633,0.855-12.949,1.279c-0.35-3.768-0.697-7.531-1.043-11.3c4.303-0.522,8.617-1.05,12.92-1.574
			C582.268,440.215,582.621,444.083,582.982,447.947z M231.984,444.513c-4.311-0.428-8.633-0.854-12.947-1.275
			c0.395-4.242,0.784-8.484,1.177-12.724c4.304,0.526,8.612,1.053,12.921,1.581C232.752,436.234,232.374,440.375,231.984,444.513z
			 M234.494,417.349c-4.297-0.647-8.594-1.291-12.891-1.941c0.391-4.24,0.785-8.481,1.176-12.724
			c4.287,0.752,8.572,1.505,12.858,2.25C235.255,409.075,234.879,413.209,234.494,417.349z M237.002,390.188
			c-4.281-0.87-8.555-1.737-12.83-2.604c0.394-4.239,0.781-8.484,1.176-12.727c4.266,0.974,8.533,1.949,12.798,2.918
			C237.764,381.912,237.379,386.048,237.002,390.188z M255.905,446.871c-4.317-0.429-8.638-0.852-12.952-1.278
			c0.373-4.054,0.748-8.105,1.119-12.157c4.311,0.523,8.619,1.049,12.926,1.576C256.635,438.962,256.27,442.91,255.905,446.871z
			 M258.295,420.935c-4.295-0.648-8.598-1.294-12.891-1.941c0.373-4.057,0.75-8.108,1.123-12.161
			c4.287,0.751,8.574,1.496,12.867,2.244C259.025,413.029,258.662,416.98,258.295,420.935z M260.691,395.001
			c-4.281-0.869-8.559-1.739-12.836-2.605c0.377-4.056,0.75-8.11,1.123-12.164c4.271,0.975,8.536,1.939,12.803,2.912
			C261.418,387.097,261.051,391.045,260.691,395.001z M279.814,449.226c-4.316-0.424-8.63-0.851-12.952-1.279
			c0.36-3.864,0.716-7.731,1.073-11.595c4.305,0.524,8.617,1.052,12.922,1.574C280.51,441.695,280.166,445.458,279.814,449.226z
			 M282.096,424.52c-4.297-0.648-8.593-1.294-12.893-1.943c0.358-3.868,0.721-7.731,1.072-11.599
			c4.285,0.748,8.578,1.498,12.861,2.245C282.788,416.987,282.443,420.751,282.096,424.52z M284.373,399.81
			c-4.277-0.868-8.55-1.735-12.828-2.608c0.354-3.866,0.717-7.732,1.072-11.597c4.264,0.97,8.535,1.939,12.797,2.907
			C285.069,392.279,284.721,396.041,284.373,399.81z M303.73,451.589c-4.316-0.431-8.633-0.855-12.951-1.283
			c0.342-3.681,0.678-7.358,1.018-11.034c4.312,0.518,8.615,1.048,12.924,1.574C304.395,444.427,304.062,448.005,303.73,451.589z
			 M305.896,428.101c-4.297-0.646-8.592-1.295-12.891-1.941c0.341-3.675,0.682-7.357,1.02-11.04
			c4.285,0.749,8.572,1.497,12.863,2.247C306.558,420.944,306.227,424.524,305.896,428.101z M308.062,404.62
			c-4.275-0.867-8.553-1.738-12.828-2.605c0.34-3.68,0.677-7.36,1.016-11.035c4.27,0.966,8.535,1.935,12.804,2.901
			C308.723,397.46,308.395,401.039,308.062,404.62z M327.645,453.939c-4.314-0.427-8.631-0.851-12.951-1.274
			c0.321-3.495,0.646-6.99,0.967-10.479c4.311,0.527,8.615,1.057,12.923,1.578C328.271,447.151,327.959,450.546,327.645,453.939z
			 M329.699,431.688c-4.297-0.652-8.597-1.301-12.892-1.945c0.323-3.493,0.644-6.985,0.968-10.477
			c4.287,0.748,8.572,1.502,12.861,2.246C330.322,424.902,330.012,428.291,329.699,431.688z M331.752,409.434
			c-4.277-0.872-8.554-1.738-12.83-2.608c0.324-3.493,0.641-6.987,0.965-10.479c4.268,0.973,8.537,1.94,12.805,2.907
			C332.376,402.643,332.064,406.041,331.752,409.434z M351.561,456.293c-4.316-0.424-8.635-0.851-12.951-1.277
			c0.304-3.3,0.607-6.607,0.91-9.911c4.313,0.524,8.617,1.054,12.928,1.58C352.152,449.888,351.857,453.089,351.561,456.293z
			 M353.499,435.269c-4.298-0.645-8.591-1.293-12.892-1.938c0.306-3.311,0.612-6.615,0.919-9.921
			c4.286,0.748,8.572,1.498,12.86,2.246C354.09,428.863,353.795,432.066,353.499,435.269z M355.44,414.239
			c-4.277-0.869-8.548-1.735-12.83-2.602c0.306-3.306,0.61-6.615,0.914-9.917c4.267,0.966,8.536,1.94,12.802,2.909
			C356.031,407.834,355.734,411.036,355.44,414.239z M385.875,512.64c5.522,0,11.045,0,16.566,0l-1.684,25.985
			c-6.031,0-12.061,0-18.092,0C383.736,529.962,384.809,521.305,385.875,512.64z M394.018,642.557c-8.073,0-16.146,0-24.221,0
			c1.077-8.658,2.146-17.32,3.217-25.985c7.564,0,15.125,0,22.689,0L394.018,642.557z M376.236,590.592
			c1.064-8.659,2.137-17.325,3.213-25.984c6.541,0,13.082,0,19.623,0l-1.686,25.984
			C390.337,590.592,383.285,590.592,376.236,590.592z M422.9,642.557c-8.273,0-16.55,0-24.824,0l1.686-25.985
			c7.713,0,15.427,0,23.139,0V642.557z M422.9,590.592c-7.15,0-14.303,0-21.455,0l1.686-25.984c6.591,0,13.181,0,19.77,0V590.592z
			 M422.9,538.625c-6.028,0-12.056,0-18.084,0l1.684-25.985c5.467,0,10.934,0,16.4,0V538.625z M426.951,642.557v-25.985
			c7.711,0,15.422,0,23.133,0l1.688,25.985C443.496,642.557,435.223,642.557,426.951,642.557z M446.713,564.608l1.688,25.984
			c-7.15,0-14.301,0-21.449,0v-25.984C433.539,564.608,440.127,564.608,446.713,564.608z M426.951,538.625V512.64
			c5.463,0,10.926,0,16.391,0l1.688,25.985C439.002,538.625,432.977,538.625,426.951,538.625z M480.051,642.557
			c-8.072,0-16.148,0-24.223,0l-1.684-25.985c7.562,0,15.125,0,22.689,0C477.902,625.237,478.975,633.899,480.051,642.557z
			 M470.4,564.608c1.072,8.659,2.145,17.325,3.213,25.984c-7.051,0-14.104,0-21.154,0l-1.686-25.984
			C457.314,564.608,463.857,564.608,470.4,564.608z M463.969,512.64c1.074,8.665,2.145,17.322,3.217,25.985
			c-6.033,0-12.066,0-18.1,0L447.4,512.64C452.924,512.64,458.447,512.64,463.969,512.64z M453.148,491.972h-56.428l-28.205-48.861
			l28.206-48.861h56.425l28.207,48.861L453.148,491.972z M493.52,404.63c4.27-0.969,8.533-1.943,12.803-2.909
			c0.307,3.301,0.611,6.61,0.914,9.917c-4.281,0.867-8.553,1.733-12.828,2.602C494.113,411.036,493.816,407.834,493.52,404.63z
			 M495.459,425.655c4.289-0.748,8.572-1.498,12.865-2.246c0.301,3.306,0.607,6.61,0.914,9.921
			c-4.299,0.646-8.594,1.294-12.891,1.938C496.049,432.066,495.754,428.863,495.459,425.655z M498.283,456.293
			c-0.295-3.204-0.592-6.405-0.883-9.608c4.309-0.526,8.615-1.056,12.924-1.58c0.307,3.304,0.607,6.611,0.914,9.911
			C506.92,455.443,502.602,455.87,498.283,456.293z M517.152,399.253c4.271-0.966,8.541-1.934,12.809-2.907
			c0.322,3.493,0.641,6.986,0.961,10.479c-4.271,0.87-8.549,1.736-12.826,2.608C517.781,406.041,517.469,402.643,517.152,399.253z
			 M519.207,421.512c4.289-0.744,8.578-1.498,12.865-2.246c0.322,3.491,0.643,6.983,0.967,10.477
			c-4.297,0.645-8.594,1.293-12.889,1.945C519.84,428.291,519.523,424.902,519.207,421.512z M522.199,453.939
			c-0.312-3.393-0.627-6.788-0.938-10.176c4.307-0.521,8.617-1.051,12.926-1.578c0.318,3.489,0.645,6.984,0.967,10.479
			C530.836,453.088,526.518,453.512,522.199,453.939z M540.797,393.881c4.264-0.966,8.529-1.935,12.797-2.901
			c0.34,3.674,0.682,7.355,1.021,11.035c-4.279,0.867-8.559,1.738-12.832,2.605C541.453,401.039,541.121,397.46,540.797,393.881z
			 M542.957,417.366c4.289-0.75,8.578-1.498,12.859-2.247c0.346,3.683,0.682,7.365,1.021,11.04
			c-4.297,0.646-8.592,1.295-12.889,1.941C543.619,424.524,543.287,420.944,542.957,417.366z M546.121,451.589
			c-0.338-3.584-0.668-7.162-0.998-10.743c4.309-0.526,8.615-1.057,12.932-1.574c0.334,3.676,0.672,7.354,1.014,11.034
			C554.75,450.734,550.432,451.159,546.121,451.589z M564.436,388.511c4.258-0.968,8.533-1.937,12.791-2.907
			c0.361,3.865,0.719,7.731,1.072,11.597c-4.277,0.873-8.551,1.74-12.826,2.608C565.125,396.041,564.779,392.279,564.436,388.511z
			 M566.711,413.222c4.283-0.747,8.574-1.497,12.861-2.245c0.355,3.868,0.715,7.731,1.072,11.599
			c-4.303,0.648-8.602,1.294-12.895,1.943C567.402,420.751,567.057,416.987,566.711,413.222z"/>
		<polygon fill="#FBBA00" points="403.486,405.851 382.049,442.978 403.486,480.11 446.361,480.11 467.797,442.978 446.361,405.851 
					"/>
	</g>
</g>
</svg>
